<?xml version="1.0" encoding="UTF-8"?>
<svg width="19px" height="23px" viewBox="0 0 19 23" version="1.1" xmlns="http://www.w3.org/2000/svg" xmlns:xlink="http://www.w3.org/1999/xlink">
    <!-- Generator: Sketch 51.3 (57544) - http://www.bohemiancoding.com/sketch -->
    <title>下载-实心</title>
    <desc>Created with Sketch.</desc>
    <defs></defs>
    <g id="main2" stroke="none" stroke-width="1" fill="none" fill-rule="evenodd">
        <g id="音乐广场" transform="translate(-260.000000, -518.000000)" fill="#8C8C92">
            <path d="M273.91612,531 L277.65943,531 C278.211714,531 278.65943,531.447715 278.65943,532 C278.65943,532.280141 278.541921,532.547437 278.335504,532.736834 L270.005792,540.379675 C269.623369,540.730564 269.036067,540.730564 268.653644,540.379675 L260.323932,532.736834 C259.91699,532.363448 259.889787,531.730868 260.263172,531.323926 C260.452568,531.117508 260.719864,531 261.000006,531 L264.743316,531 L264.743316,519 C264.743316,518.447715 265.191031,518 265.743316,518 L272.91612,518 C273.468404,518 273.91612,518.447715 273.91612,519 L273.91612,531 Z" id="下载-实心"></path>
        </g>
    </g>
</svg>