<?xml version="1.0" encoding="UTF-8"?>
<svg width="21px" height="25px" viewBox="0 0 21 25" version="1.1" xmlns="http://www.w3.org/2000/svg" xmlns:xlink="http://www.w3.org/1999/xlink">
    <!-- Generator: Sketch 51.3 (57544) - http://www.bohemiancoding.com/sketch -->
    <title>下载-空心</title>
    <desc>Created with Sketch.</desc>
    <defs></defs>
    <g id="main2" stroke="none" stroke-width="1" fill="none" fill-rule="evenodd" stroke-linecap="round" stroke-linejoin="round">
        <g id="音乐广场" transform="translate(-235.000000, -517.000000)" stroke="#8C8C92" stroke-width="1.2">
            <path d="M249.91612,531 L253.65943,531 C254.211714,531 254.65943,531.447715 254.65943,532 C254.65943,532.280141 254.541921,532.547437 254.335504,532.736834 L246.005792,540.379675 C245.623369,540.730564 245.036067,540.730564 244.653644,540.379675 L236.323932,532.736834 C235.91699,532.363448 235.889787,531.730868 236.263172,531.323926 C236.452568,531.117508 236.719864,531 237.000006,531 L240.743316,531 L240.743316,519 C240.743316,518.447715 241.191031,518 241.743316,518 L248.91612,518 C249.468404,518 249.91612,518.447715 249.91612,519 L249.91612,531 Z" id="下载-空心"></path>
        </g>
    </g>
</svg>