<?xml version="1.0" standalone="no"?><!DOCTYPE svg PUBLIC "-//W3C//DTD SVG 1.1//EN" "http://www.w3.org/Graphics/SVG/1.1/DTD/svg11.dtd"><svg t="1520430839305" class="icon" style="" viewBox="0 0 1024 1024" version="1.1" xmlns="http://www.w3.org/2000/svg" p-id="3123" xmlns:xlink="http://www.w3.org/1999/xlink" width="200" height="200"><defs><style type="text/css"></style></defs><path d="M862.1 828.2 161.3 828.2c-18.9 0-34.3 15.4-34.3 34.3s15.4 34.3 34.3 34.3l700.8 0c18.9 0 34.3-15.4 34.3-34.3S881 828.2 862.1 828.2z" p-id="3124" fill="#7d839e"></path><path d="M334.2 725.3c4.6 0 9.4-1 14.2-2.9l0.3 0 195.2-91.7 2-1 332-332.2c11.4-11.3 17.6-26.4 17.6-42.4s-6.3-31.1-17.6-42.4l-67-67c-11.4-11.3-26.5-17.5-42.5-17.5s-31.1 6.3-42.4 17.6L395.3 476.3l-1.5 1.5-0.9 1.9-91.3 194.1c-5.4 11.5-4.6 24.1 2.2 34.8C310.5 718.9 322.1 725.3 334.2 725.3zM728.5 240.1l39.8-39.8 54.9 54.9L783.4 295 728.5 240.1zM402 621.4l48.7-103.6L680 288.6l54.9 54.9L505.6 572.7 402 621.4z" p-id="3125" fill="#7d839e"></path></svg>