<?xml version="1.0" encoding="UTF-8"?>
<svg width="48px" height="48px" viewBox="0 0 48 48" version="1.1" xmlns="http://www.w3.org/2000/svg" xmlns:xlink="http://www.w3.org/1999/xlink">
    <!-- Generator: Sketch 49.3 (51167) - http://www.bohemiancoding.com/sketch -->
    <title>原始</title>
    <desc>Created with Sketch.</desc>
    <defs></defs>
    <g id="原始" stroke="none" stroke-width="1" fill="none" fill-rule="evenodd">
        <path d="M14.1170671,6.35604039 C13.8634645,5.41300749 14.43435,4.54702487 15.3267731,4.17871461 C17.0106053,3.4837834 18.4143485,4.95142199 18.9665175,6.24507886 L23.7069868,17.3513533 C24.0961764,18.2631716 24.9762926,18.8525301 25.9487633,18.8525301 C26.5991363,18.8525301 27.086916,18.8525301 27.4121025,18.8525301 C28.3231155,18.8525301 29.6896351,18.8525301 31.5116611,18.8525301 C35.6902827,18.8525301 39.3011001,21.8391181 40.1766428,26.0195306 L40.7723511,28.8638307 C41.9356484,34.4181714 38.5281492,39.9000722 33.1183672,41.1773715 L31.5116611,41.5567296 C24.6756076,43.1707847 17.5763674,40.2907541 13.6788375,34.3222825 L9,27.1573578 C10.6118502,25.8604211 12.8920122,25.8987619 14.461338,27.2491897 L16.5454562,29.0426039 C17.3661523,29.748825 18.5910153,29.6406295 19.2812641,28.8009425 C19.692498,28.300677 19.836885,27.6254457 19.6673948,26.9951884 L14.1170671,6.35604039 Z" fill="#FFFFFF"></path>
    </g>
</svg>