<?xml version="1.0" encoding="UTF-8"?>
<svg width="14px" height="14px" viewBox="0 0 14 14" version="1.1" xmlns="http://www.w3.org/2000/svg" xmlns:xlink="http://www.w3.org/1999/xlink">
    <!-- Generator: Sketch 51.3 (57544) - http://www.bohemiancoding.com/sketch -->
    <title>Group 10</title>
    <desc>Created with Sketch.</desc>
    <defs></defs>
    <g id="main2" stroke="none" stroke-width="1" fill="none" fill-rule="evenodd">
        <g id="编曲页-2" transform="translate(-613.000000, -343.000000)">
            <g id="Group" transform="translate(0.000000, 282.000000)">
                <g id="播放-合" transform="translate(598.000000, 46.000000)">
                    <g id="Group-3" transform="translate(4.000000, 4.000000)">
                        <g id="Group-11" transform="translate(11.000000, 11.000000)">
                            <g id="Group-10">
                                <circle id="Oval-3" cx="7" cy="7" r="7"></circle>
                                <path d="M4,2 L5,2 C5.55228475,2 6,2.44771525 6,3 L6,11 C6,11.5522847 5.55228475,12 5,12 L4,12 C3.44771525,12 3,11.5522847 3,11 L3,3 C3,2.44771525 3.44771525,2 4,2 Z M9,2 L10,2 C10.5522847,2 11,2.44771525 11,3 L11,11 C11,11.5522847 10.5522847,12 10,12 L9,12 C8.44771525,12 8,11.5522847 8,11 L8,3 C8,2.44771525 8.44771525,2 9,2 Z" id="Combined-Shape" fill="#FFFFFF"></path>
                            </g>
                        </g>
                    </g>
                </g>
            </g>
        </g>
    </g>
</svg>