<?xml version="1.0" standalone="no"?><!DOCTYPE svg PUBLIC "-//W3C//DTD SVG 1.1//EN" "http://www.w3.org/Graphics/SVG/1.1/DTD/svg11.dtd"><svg t="1511421492641" class="icon" style="" viewBox="0 0 1024 1024" version="1.1" xmlns="http://www.w3.org/2000/svg" p-id="11736" xmlns:xlink="http://www.w3.org/1999/xlink" width="200" height="200"><defs><style type="text/css"></style></defs><path d="M1024 153.28v717.44A153.408 153.408 0 0 1 870.72 1024H153.28A153.408 153.408 0 0 1 0 870.72V153.28A153.408 153.408 0 0 1 153.28 0h717.44A153.408 153.408 0 0 1 1024 153.28z m-204.8 542.72c0-203.2-137.92-368.704-307.2-368v-61.312c0-23.552-11.072-45.056-28.48-55.168A40.704 40.704 0 0 0 460.8 204.8a45.312 45.312 0 0 0-30.848 12.16l-204.8 184.96a65.92 65.92 0 0 0-20.352 49.152c0 19.52 7.552 37.76 20.352 49.152l204.8 184.384c9.344 8.064 19.84 12.16 30.848 12.16a46.976 46.976 0 0 0 22.72-6.784c17.408-10.752 28.48-31.616 28.48-55.168v-61.248c133.76 0 246.72 102.272 289.152 245.632 11.648-38.4 18.048-80.064 18.048-123.136z" p-id="11737" fill="#ffffff"></path></svg>